<mxfile host="app.diagrams.net" modified="2023-12-06T10:37:12.705Z" agent="Mozilla/5.0 (Windows NT 10.0; Win64; x64; rv:120.0) Gecko/20100101 Firefox/120.0" etag="6oFDm4laezFgPBZb6nOQ" version="22.1.5" type="device">
  <diagram name="Page-1" id="IMgk3FCCrOfvFI_Qu6i3">
    <mxGraphModel dx="1195" dy="622" grid="1" gridSize="10" guides="1" tooltips="1" connect="1" arrows="1" fold="1" page="1" pageScale="1" pageWidth="850" pageHeight="1100" math="0" shadow="0">
      <root>
        <mxCell id="0" />
        <mxCell id="1" parent="0" />
        <mxCell id="L89Lu0_wdaJq7RYPjsFC-1" value="List" style="rounded=0;whiteSpace=wrap;html=1;fillColor=#fff2cc;strokeColor=#d6b656;" vertex="1" parent="1">
          <mxGeometry x="415" y="180" width="50" height="20" as="geometry" />
        </mxCell>
        <mxCell id="L89Lu0_wdaJq7RYPjsFC-2" value="Composition" style="rounded=0;whiteSpace=wrap;html=1;fillColor=#fff2cc;strokeColor=#d6b656;" vertex="1" parent="1">
          <mxGeometry x="400" y="260" width="80" height="20" as="geometry" />
        </mxCell>
        <mxCell id="L89Lu0_wdaJq7RYPjsFC-3" value="Axis: b" style="rounded=0;whiteSpace=wrap;html=1;fillColor=#fff2cc;strokeColor=#d6b656;" vertex="1" parent="1">
          <mxGeometry x="320" y="220" width="50" height="20" as="geometry" />
        </mxCell>
        <mxCell id="L89Lu0_wdaJq7RYPjsFC-4" value="Ellipsis" style="rounded=0;whiteSpace=wrap;html=1;fillColor=#fff2cc;strokeColor=#d6b656;" vertex="1" parent="1">
          <mxGeometry x="400" y="220" width="80" height="20" as="geometry" />
        </mxCell>
        <mxCell id="L89Lu0_wdaJq7RYPjsFC-6" value="Axis: c" style="rounded=0;whiteSpace=wrap;html=1;fillColor=#fff2cc;strokeColor=#d6b656;" vertex="1" parent="1">
          <mxGeometry x="510" y="220" width="50" height="20" as="geometry" />
        </mxCell>
        <mxCell id="L89Lu0_wdaJq7RYPjsFC-8" value="List" style="rounded=0;whiteSpace=wrap;html=1;fillColor=#fff2cc;strokeColor=#d6b656;" vertex="1" parent="1">
          <mxGeometry x="415" y="300" width="50" height="20" as="geometry" />
        </mxCell>
        <mxCell id="L89Lu0_wdaJq7RYPjsFC-10" value="Axis: s" style="rounded=0;whiteSpace=wrap;html=1;fillColor=#fff2cc;strokeColor=#d6b656;" vertex="1" parent="1">
          <mxGeometry x="377.5" y="340" width="50" height="20" as="geometry" />
        </mxCell>
        <mxCell id="L89Lu0_wdaJq7RYPjsFC-11" value="Marker" style="rounded=0;whiteSpace=wrap;html=1;fillColor=#fff2cc;strokeColor=#d6b656;" vertex="1" parent="1">
          <mxGeometry x="452.5" y="340" width="50" height="20" as="geometry" />
        </mxCell>
        <mxCell id="L89Lu0_wdaJq7RYPjsFC-12" value="Axis: r" style="rounded=0;whiteSpace=wrap;html=1;fillColor=#fff2cc;strokeColor=#d6b656;" vertex="1" parent="1">
          <mxGeometry x="452.5" y="380" width="50" height="20" as="geometry" />
        </mxCell>
        <mxCell id="L89Lu0_wdaJq7RYPjsFC-15" value="" style="endArrow=classic;html=1;rounded=0;exitX=0.5;exitY=1;exitDx=0;exitDy=0;entryX=1;entryY=0;entryDx=0;entryDy=0;" edge="1" parent="1" source="L89Lu0_wdaJq7RYPjsFC-1" target="L89Lu0_wdaJq7RYPjsFC-3">
          <mxGeometry width="50" height="50" relative="1" as="geometry">
            <mxPoint x="400" y="300" as="sourcePoint" />
            <mxPoint x="450" y="250" as="targetPoint" />
          </mxGeometry>
        </mxCell>
        <mxCell id="L89Lu0_wdaJq7RYPjsFC-16" value="" style="endArrow=classic;html=1;rounded=0;entryX=0;entryY=0;entryDx=0;entryDy=0;" edge="1" parent="1" target="L89Lu0_wdaJq7RYPjsFC-6">
          <mxGeometry width="50" height="50" relative="1" as="geometry">
            <mxPoint x="440" y="200" as="sourcePoint" />
            <mxPoint x="380" y="230" as="targetPoint" />
          </mxGeometry>
        </mxCell>
        <mxCell id="L89Lu0_wdaJq7RYPjsFC-17" value="" style="endArrow=classic;html=1;rounded=0;entryX=0.5;entryY=0;entryDx=0;entryDy=0;" edge="1" parent="1" target="L89Lu0_wdaJq7RYPjsFC-4">
          <mxGeometry width="50" height="50" relative="1" as="geometry">
            <mxPoint x="440" y="200" as="sourcePoint" />
            <mxPoint x="520" y="230" as="targetPoint" />
          </mxGeometry>
        </mxCell>
        <mxCell id="L89Lu0_wdaJq7RYPjsFC-18" value="" style="endArrow=classic;html=1;rounded=0;entryX=0.5;entryY=0;entryDx=0;entryDy=0;exitX=0.5;exitY=1;exitDx=0;exitDy=0;" edge="1" parent="1" source="L89Lu0_wdaJq7RYPjsFC-4" target="L89Lu0_wdaJq7RYPjsFC-2">
          <mxGeometry width="50" height="50" relative="1" as="geometry">
            <mxPoint x="450" y="210" as="sourcePoint" />
            <mxPoint x="450" y="230" as="targetPoint" />
          </mxGeometry>
        </mxCell>
        <mxCell id="L89Lu0_wdaJq7RYPjsFC-19" value="" style="endArrow=classic;html=1;rounded=0;entryX=0.5;entryY=0;entryDx=0;entryDy=0;exitX=0.5;exitY=1;exitDx=0;exitDy=0;" edge="1" parent="1" source="L89Lu0_wdaJq7RYPjsFC-2" target="L89Lu0_wdaJq7RYPjsFC-8">
          <mxGeometry width="50" height="50" relative="1" as="geometry">
            <mxPoint x="450" y="250" as="sourcePoint" />
            <mxPoint x="450" y="270" as="targetPoint" />
          </mxGeometry>
        </mxCell>
        <mxCell id="L89Lu0_wdaJq7RYPjsFC-20" value="" style="endArrow=classic;html=1;rounded=0;exitX=0.5;exitY=1;exitDx=0;exitDy=0;entryX=1;entryY=0;entryDx=0;entryDy=0;" edge="1" parent="1" source="L89Lu0_wdaJq7RYPjsFC-8" target="L89Lu0_wdaJq7RYPjsFC-10">
          <mxGeometry width="50" height="50" relative="1" as="geometry">
            <mxPoint x="450" y="290" as="sourcePoint" />
            <mxPoint x="430" y="340" as="targetPoint" />
          </mxGeometry>
        </mxCell>
        <mxCell id="L89Lu0_wdaJq7RYPjsFC-21" value="" style="endArrow=classic;html=1;rounded=0;exitX=0.5;exitY=1;exitDx=0;exitDy=0;entryX=0;entryY=0;entryDx=0;entryDy=0;" edge="1" parent="1" source="L89Lu0_wdaJq7RYPjsFC-8" target="L89Lu0_wdaJq7RYPjsFC-11">
          <mxGeometry width="50" height="50" relative="1" as="geometry">
            <mxPoint x="450" y="330" as="sourcePoint" />
            <mxPoint x="440" y="350" as="targetPoint" />
          </mxGeometry>
        </mxCell>
        <mxCell id="L89Lu0_wdaJq7RYPjsFC-22" value="" style="endArrow=classic;html=1;rounded=0;exitX=0.5;exitY=1;exitDx=0;exitDy=0;entryX=0.5;entryY=0;entryDx=0;entryDy=0;" edge="1" parent="1" source="L89Lu0_wdaJq7RYPjsFC-11" target="L89Lu0_wdaJq7RYPjsFC-12">
          <mxGeometry width="50" height="50" relative="1" as="geometry">
            <mxPoint x="450" y="330" as="sourcePoint" />
            <mxPoint x="463" y="350" as="targetPoint" />
          </mxGeometry>
        </mxCell>
        <mxCell id="L89Lu0_wdaJq7RYPjsFC-23" value="List" style="rounded=0;whiteSpace=wrap;html=1;fillColor=#fff2cc;strokeColor=#d6b656;" vertex="1" parent="1">
          <mxGeometry x="810" y="520" width="50" height="20" as="geometry" />
        </mxCell>
        <mxCell id="L89Lu0_wdaJq7RYPjsFC-25" value="Axis: b" style="rounded=0;whiteSpace=wrap;html=1;fillColor=#fff2cc;strokeColor=#d6b656;" vertex="1" parent="1">
          <mxGeometry x="640" y="560" width="50" height="20" as="geometry" />
        </mxCell>
        <mxCell id="L89Lu0_wdaJq7RYPjsFC-27" value="Axis: c" style="rounded=0;whiteSpace=wrap;html=1;fillColor=#fff2cc;strokeColor=#d6b656;" vertex="1" parent="1">
          <mxGeometry x="970" y="560" width="50" height="20" as="geometry" />
        </mxCell>
        <mxCell id="L89Lu0_wdaJq7RYPjsFC-32" value="" style="endArrow=classic;html=1;rounded=0;exitX=0.5;exitY=1;exitDx=0;exitDy=0;entryX=1;entryY=0;entryDx=0;entryDy=0;" edge="1" parent="1" source="L89Lu0_wdaJq7RYPjsFC-23" target="L89Lu0_wdaJq7RYPjsFC-25">
          <mxGeometry width="50" height="50" relative="1" as="geometry">
            <mxPoint x="760" y="640" as="sourcePoint" />
            <mxPoint x="810" y="590" as="targetPoint" />
          </mxGeometry>
        </mxCell>
        <mxCell id="L89Lu0_wdaJq7RYPjsFC-33" value="" style="endArrow=classic;html=1;rounded=0;entryX=0;entryY=0;entryDx=0;entryDy=0;exitX=0.5;exitY=1;exitDx=0;exitDy=0;" edge="1" parent="1" target="L89Lu0_wdaJq7RYPjsFC-27" source="L89Lu0_wdaJq7RYPjsFC-23">
          <mxGeometry width="50" height="50" relative="1" as="geometry">
            <mxPoint x="800" y="540" as="sourcePoint" />
            <mxPoint x="740" y="570" as="targetPoint" />
          </mxGeometry>
        </mxCell>
        <mxCell id="L89Lu0_wdaJq7RYPjsFC-34" value="" style="endArrow=classic;html=1;rounded=0;entryX=0.5;entryY=0;entryDx=0;entryDy=0;exitX=0.5;exitY=1;exitDx=0;exitDy=0;" edge="1" parent="1" source="L89Lu0_wdaJq7RYPjsFC-23">
          <mxGeometry width="50" height="50" relative="1" as="geometry">
            <mxPoint x="800" y="540" as="sourcePoint" />
            <mxPoint x="800" y="560" as="targetPoint" />
          </mxGeometry>
        </mxCell>
        <mxCell id="L89Lu0_wdaJq7RYPjsFC-40" value="Composition" style="rounded=0;whiteSpace=wrap;html=1;fillColor=#fff2cc;strokeColor=#d6b656;" vertex="1" parent="1">
          <mxGeometry x="719.5" y="560" width="80" height="20" as="geometry" />
        </mxCell>
        <mxCell id="L89Lu0_wdaJq7RYPjsFC-41" value="List" style="rounded=0;whiteSpace=wrap;html=1;fillColor=#fff2cc;strokeColor=#d6b656;" vertex="1" parent="1">
          <mxGeometry x="734.5" y="600" width="50" height="20" as="geometry" />
        </mxCell>
        <mxCell id="L89Lu0_wdaJq7RYPjsFC-42" value="Axis: s.0" style="rounded=0;whiteSpace=wrap;html=1;fillColor=#fff2cc;strokeColor=#d6b656;" vertex="1" parent="1">
          <mxGeometry x="697" y="640" width="50" height="20" as="geometry" />
        </mxCell>
        <mxCell id="L89Lu0_wdaJq7RYPjsFC-43" value="Marker" style="rounded=0;whiteSpace=wrap;html=1;fillColor=#fff2cc;strokeColor=#d6b656;" vertex="1" parent="1">
          <mxGeometry x="772" y="640" width="50" height="20" as="geometry" />
        </mxCell>
        <mxCell id="L89Lu0_wdaJq7RYPjsFC-44" value="Axis: r.0" style="rounded=0;whiteSpace=wrap;html=1;fillColor=#fff2cc;strokeColor=#d6b656;" vertex="1" parent="1">
          <mxGeometry x="772" y="680" width="50" height="20" as="geometry" />
        </mxCell>
        <mxCell id="L89Lu0_wdaJq7RYPjsFC-45" value="" style="endArrow=classic;html=1;rounded=0;entryX=0.5;entryY=0;entryDx=0;entryDy=0;exitX=0.5;exitY=1;exitDx=0;exitDy=0;" edge="1" parent="1" source="L89Lu0_wdaJq7RYPjsFC-40" target="L89Lu0_wdaJq7RYPjsFC-41">
          <mxGeometry width="50" height="50" relative="1" as="geometry">
            <mxPoint x="769.5" y="550" as="sourcePoint" />
            <mxPoint x="769.5" y="570" as="targetPoint" />
          </mxGeometry>
        </mxCell>
        <mxCell id="L89Lu0_wdaJq7RYPjsFC-46" value="" style="endArrow=classic;html=1;rounded=0;exitX=0.5;exitY=1;exitDx=0;exitDy=0;entryX=1;entryY=0;entryDx=0;entryDy=0;" edge="1" parent="1" source="L89Lu0_wdaJq7RYPjsFC-41" target="L89Lu0_wdaJq7RYPjsFC-42">
          <mxGeometry width="50" height="50" relative="1" as="geometry">
            <mxPoint x="769.5" y="590" as="sourcePoint" />
            <mxPoint x="749.5" y="640" as="targetPoint" />
          </mxGeometry>
        </mxCell>
        <mxCell id="L89Lu0_wdaJq7RYPjsFC-47" value="" style="endArrow=classic;html=1;rounded=0;exitX=0.5;exitY=1;exitDx=0;exitDy=0;entryX=0;entryY=0;entryDx=0;entryDy=0;" edge="1" parent="1" source="L89Lu0_wdaJq7RYPjsFC-41" target="L89Lu0_wdaJq7RYPjsFC-43">
          <mxGeometry width="50" height="50" relative="1" as="geometry">
            <mxPoint x="769.5" y="630" as="sourcePoint" />
            <mxPoint x="759.5" y="650" as="targetPoint" />
          </mxGeometry>
        </mxCell>
        <mxCell id="L89Lu0_wdaJq7RYPjsFC-48" value="" style="endArrow=classic;html=1;rounded=0;exitX=0.5;exitY=1;exitDx=0;exitDy=0;entryX=0.5;entryY=0;entryDx=0;entryDy=0;" edge="1" parent="1" source="L89Lu0_wdaJq7RYPjsFC-43" target="L89Lu0_wdaJq7RYPjsFC-44">
          <mxGeometry width="50" height="50" relative="1" as="geometry">
            <mxPoint x="769.5" y="630" as="sourcePoint" />
            <mxPoint x="782.5" y="650" as="targetPoint" />
          </mxGeometry>
        </mxCell>
        <mxCell id="L89Lu0_wdaJq7RYPjsFC-58" value="Composition" style="rounded=0;whiteSpace=wrap;html=1;fillColor=#fff2cc;strokeColor=#d6b656;" vertex="1" parent="1">
          <mxGeometry x="862.5" y="560" width="80" height="20" as="geometry" />
        </mxCell>
        <mxCell id="L89Lu0_wdaJq7RYPjsFC-59" value="List" style="rounded=0;whiteSpace=wrap;html=1;fillColor=#fff2cc;strokeColor=#d6b656;" vertex="1" parent="1">
          <mxGeometry x="877.5" y="600" width="50" height="20" as="geometry" />
        </mxCell>
        <mxCell id="L89Lu0_wdaJq7RYPjsFC-60" value="Axis: s.1" style="rounded=0;whiteSpace=wrap;html=1;fillColor=#fff2cc;strokeColor=#d6b656;" vertex="1" parent="1">
          <mxGeometry x="840" y="640" width="50" height="20" as="geometry" />
        </mxCell>
        <mxCell id="L89Lu0_wdaJq7RYPjsFC-61" value="Marker" style="rounded=0;whiteSpace=wrap;html=1;fillColor=#fff2cc;strokeColor=#d6b656;" vertex="1" parent="1">
          <mxGeometry x="915" y="640" width="50" height="20" as="geometry" />
        </mxCell>
        <mxCell id="L89Lu0_wdaJq7RYPjsFC-62" value="Axis: r.1" style="rounded=0;whiteSpace=wrap;html=1;fillColor=#fff2cc;strokeColor=#d6b656;" vertex="1" parent="1">
          <mxGeometry x="915" y="680" width="50" height="20" as="geometry" />
        </mxCell>
        <mxCell id="L89Lu0_wdaJq7RYPjsFC-63" value="" style="endArrow=classic;html=1;rounded=0;entryX=0.5;entryY=0;entryDx=0;entryDy=0;exitX=0.5;exitY=1;exitDx=0;exitDy=0;" edge="1" parent="1" source="L89Lu0_wdaJq7RYPjsFC-58" target="L89Lu0_wdaJq7RYPjsFC-59">
          <mxGeometry width="50" height="50" relative="1" as="geometry">
            <mxPoint x="912.5" y="550" as="sourcePoint" />
            <mxPoint x="912.5" y="570" as="targetPoint" />
          </mxGeometry>
        </mxCell>
        <mxCell id="L89Lu0_wdaJq7RYPjsFC-64" value="" style="endArrow=classic;html=1;rounded=0;exitX=0.5;exitY=1;exitDx=0;exitDy=0;entryX=1;entryY=0;entryDx=0;entryDy=0;" edge="1" parent="1" source="L89Lu0_wdaJq7RYPjsFC-59" target="L89Lu0_wdaJq7RYPjsFC-60">
          <mxGeometry width="50" height="50" relative="1" as="geometry">
            <mxPoint x="912.5" y="590" as="sourcePoint" />
            <mxPoint x="892.5" y="640" as="targetPoint" />
          </mxGeometry>
        </mxCell>
        <mxCell id="L89Lu0_wdaJq7RYPjsFC-65" value="" style="endArrow=classic;html=1;rounded=0;exitX=0.5;exitY=1;exitDx=0;exitDy=0;entryX=0;entryY=0;entryDx=0;entryDy=0;" edge="1" parent="1" source="L89Lu0_wdaJq7RYPjsFC-59" target="L89Lu0_wdaJq7RYPjsFC-61">
          <mxGeometry width="50" height="50" relative="1" as="geometry">
            <mxPoint x="912.5" y="630" as="sourcePoint" />
            <mxPoint x="902.5" y="650" as="targetPoint" />
          </mxGeometry>
        </mxCell>
        <mxCell id="L89Lu0_wdaJq7RYPjsFC-66" value="" style="endArrow=classic;html=1;rounded=0;exitX=0.5;exitY=1;exitDx=0;exitDy=0;entryX=0.5;entryY=0;entryDx=0;entryDy=0;" edge="1" parent="1" source="L89Lu0_wdaJq7RYPjsFC-61" target="L89Lu0_wdaJq7RYPjsFC-62">
          <mxGeometry width="50" height="50" relative="1" as="geometry">
            <mxPoint x="912.5" y="630" as="sourcePoint" />
            <mxPoint x="925.5" y="650" as="targetPoint" />
          </mxGeometry>
        </mxCell>
        <mxCell id="L89Lu0_wdaJq7RYPjsFC-67" value="" style="endArrow=classic;html=1;rounded=0;entryX=0;entryY=0;entryDx=0;entryDy=0;exitX=0.5;exitY=1;exitDx=0;exitDy=0;" edge="1" parent="1" source="L89Lu0_wdaJq7RYPjsFC-23" target="L89Lu0_wdaJq7RYPjsFC-58">
          <mxGeometry width="50" height="50" relative="1" as="geometry">
            <mxPoint x="845" y="550" as="sourcePoint" />
            <mxPoint x="810" y="570" as="targetPoint" />
          </mxGeometry>
        </mxCell>
        <mxCell id="L89Lu0_wdaJq7RYPjsFC-68" value="List" style="rounded=0;whiteSpace=wrap;html=1;fillColor=#fff2cc;strokeColor=#d6b656;" vertex="1" parent="1">
          <mxGeometry x="1370" y="850" width="50" height="20" as="geometry" />
        </mxCell>
        <mxCell id="L89Lu0_wdaJq7RYPjsFC-69" value="Axis: b" style="rounded=0;whiteSpace=wrap;html=1;fillColor=#fff2cc;strokeColor=#d6b656;" vertex="1" parent="1">
          <mxGeometry x="1200" y="890" width="50" height="20" as="geometry" />
        </mxCell>
        <mxCell id="L89Lu0_wdaJq7RYPjsFC-70" value="Axis: c" style="rounded=0;whiteSpace=wrap;html=1;fillColor=#fff2cc;strokeColor=#d6b656;" vertex="1" parent="1">
          <mxGeometry x="1530" y="890" width="50" height="20" as="geometry" />
        </mxCell>
        <mxCell id="L89Lu0_wdaJq7RYPjsFC-71" value="" style="endArrow=classic;html=1;rounded=0;exitX=0.5;exitY=1;exitDx=0;exitDy=0;entryX=1;entryY=0;entryDx=0;entryDy=0;" edge="1" parent="1" source="L89Lu0_wdaJq7RYPjsFC-68" target="L89Lu0_wdaJq7RYPjsFC-69">
          <mxGeometry width="50" height="50" relative="1" as="geometry">
            <mxPoint x="1320" y="970" as="sourcePoint" />
            <mxPoint x="1370" y="920" as="targetPoint" />
          </mxGeometry>
        </mxCell>
        <mxCell id="L89Lu0_wdaJq7RYPjsFC-72" value="" style="endArrow=classic;html=1;rounded=0;entryX=0;entryY=0;entryDx=0;entryDy=0;exitX=0.5;exitY=1;exitDx=0;exitDy=0;" edge="1" parent="1" source="L89Lu0_wdaJq7RYPjsFC-68" target="L89Lu0_wdaJq7RYPjsFC-70">
          <mxGeometry width="50" height="50" relative="1" as="geometry">
            <mxPoint x="1360" y="870" as="sourcePoint" />
            <mxPoint x="1300" y="900" as="targetPoint" />
          </mxGeometry>
        </mxCell>
        <mxCell id="L89Lu0_wdaJq7RYPjsFC-73" value="" style="endArrow=classic;html=1;rounded=0;entryX=0.5;entryY=0;entryDx=0;entryDy=0;exitX=0.5;exitY=1;exitDx=0;exitDy=0;" edge="1" parent="1" source="L89Lu0_wdaJq7RYPjsFC-68">
          <mxGeometry width="50" height="50" relative="1" as="geometry">
            <mxPoint x="1360" y="870" as="sourcePoint" />
            <mxPoint x="1360" y="890" as="targetPoint" />
          </mxGeometry>
        </mxCell>
        <mxCell id="L89Lu0_wdaJq7RYPjsFC-74" value="Composition" style="rounded=0;whiteSpace=wrap;html=1;fillColor=#fff2cc;strokeColor=#d6b656;" vertex="1" parent="1">
          <mxGeometry x="1279.5" y="890" width="80" height="20" as="geometry" />
        </mxCell>
        <mxCell id="L89Lu0_wdaJq7RYPjsFC-75" value="List" style="rounded=0;whiteSpace=wrap;html=1;fillColor=#fff2cc;strokeColor=#d6b656;" vertex="1" parent="1">
          <mxGeometry x="1294.5" y="930" width="50" height="20" as="geometry" />
        </mxCell>
        <mxCell id="L89Lu0_wdaJq7RYPjsFC-76" value="Axis: s.0" style="rounded=0;whiteSpace=wrap;html=1;fillColor=#fff2cc;strokeColor=#d6b656;" vertex="1" parent="1">
          <mxGeometry x="1257" y="970" width="50" height="20" as="geometry" />
        </mxCell>
        <mxCell id="L89Lu0_wdaJq7RYPjsFC-77" value="Marker" style="rounded=0;whiteSpace=wrap;html=1;fillColor=#fff2cc;strokeColor=#d6b656;" vertex="1" parent="1">
          <mxGeometry x="1332" y="970" width="50" height="20" as="geometry" />
        </mxCell>
        <mxCell id="L89Lu0_wdaJq7RYPjsFC-78" value="Axis: r.0" style="rounded=0;whiteSpace=wrap;html=1;fillColor=#fff2cc;strokeColor=#d6b656;" vertex="1" parent="1">
          <mxGeometry x="1332" y="1010" width="50" height="20" as="geometry" />
        </mxCell>
        <mxCell id="L89Lu0_wdaJq7RYPjsFC-79" value="" style="endArrow=classic;html=1;rounded=0;entryX=0.5;entryY=0;entryDx=0;entryDy=0;exitX=0.5;exitY=1;exitDx=0;exitDy=0;" edge="1" parent="1" source="L89Lu0_wdaJq7RYPjsFC-74" target="L89Lu0_wdaJq7RYPjsFC-75">
          <mxGeometry width="50" height="50" relative="1" as="geometry">
            <mxPoint x="1329.5" y="880" as="sourcePoint" />
            <mxPoint x="1329.5" y="900" as="targetPoint" />
          </mxGeometry>
        </mxCell>
        <mxCell id="L89Lu0_wdaJq7RYPjsFC-80" value="" style="endArrow=classic;html=1;rounded=0;exitX=0.5;exitY=1;exitDx=0;exitDy=0;entryX=1;entryY=0;entryDx=0;entryDy=0;" edge="1" parent="1" source="L89Lu0_wdaJq7RYPjsFC-75" target="L89Lu0_wdaJq7RYPjsFC-76">
          <mxGeometry width="50" height="50" relative="1" as="geometry">
            <mxPoint x="1329.5" y="920" as="sourcePoint" />
            <mxPoint x="1309.5" y="970" as="targetPoint" />
          </mxGeometry>
        </mxCell>
        <mxCell id="L89Lu0_wdaJq7RYPjsFC-81" value="" style="endArrow=classic;html=1;rounded=0;exitX=0.5;exitY=1;exitDx=0;exitDy=0;entryX=0;entryY=0;entryDx=0;entryDy=0;" edge="1" parent="1" source="L89Lu0_wdaJq7RYPjsFC-75" target="L89Lu0_wdaJq7RYPjsFC-77">
          <mxGeometry width="50" height="50" relative="1" as="geometry">
            <mxPoint x="1329.5" y="960" as="sourcePoint" />
            <mxPoint x="1319.5" y="980" as="targetPoint" />
          </mxGeometry>
        </mxCell>
        <mxCell id="L89Lu0_wdaJq7RYPjsFC-82" value="" style="endArrow=classic;html=1;rounded=0;exitX=0.5;exitY=1;exitDx=0;exitDy=0;entryX=0.5;entryY=0;entryDx=0;entryDy=0;" edge="1" parent="1" source="L89Lu0_wdaJq7RYPjsFC-77" target="L89Lu0_wdaJq7RYPjsFC-78">
          <mxGeometry width="50" height="50" relative="1" as="geometry">
            <mxPoint x="1329.5" y="960" as="sourcePoint" />
            <mxPoint x="1342.5" y="980" as="targetPoint" />
          </mxGeometry>
        </mxCell>
        <mxCell id="L89Lu0_wdaJq7RYPjsFC-83" value="Composition" style="rounded=0;whiteSpace=wrap;html=1;fillColor=#fff2cc;strokeColor=#d6b656;" vertex="1" parent="1">
          <mxGeometry x="1422.5" y="890" width="80" height="20" as="geometry" />
        </mxCell>
        <mxCell id="L89Lu0_wdaJq7RYPjsFC-84" value="List" style="rounded=0;whiteSpace=wrap;html=1;fillColor=#fff2cc;strokeColor=#d6b656;" vertex="1" parent="1">
          <mxGeometry x="1437.5" y="930" width="50" height="20" as="geometry" />
        </mxCell>
        <mxCell id="L89Lu0_wdaJq7RYPjsFC-85" value="Axis: s.1" style="rounded=0;whiteSpace=wrap;html=1;fillColor=#fff2cc;strokeColor=#d6b656;" vertex="1" parent="1">
          <mxGeometry x="1400" y="970" width="50" height="20" as="geometry" />
        </mxCell>
        <mxCell id="L89Lu0_wdaJq7RYPjsFC-86" value="Marker" style="rounded=0;whiteSpace=wrap;html=1;fillColor=#fff2cc;strokeColor=#d6b656;" vertex="1" parent="1">
          <mxGeometry x="1475" y="970" width="50" height="20" as="geometry" />
        </mxCell>
        <mxCell id="L89Lu0_wdaJq7RYPjsFC-87" value="Axis: r.1" style="rounded=0;whiteSpace=wrap;html=1;fillColor=#fff2cc;strokeColor=#d6b656;" vertex="1" parent="1">
          <mxGeometry x="1475" y="1010" width="50" height="20" as="geometry" />
        </mxCell>
        <mxCell id="L89Lu0_wdaJq7RYPjsFC-88" value="" style="endArrow=classic;html=1;rounded=0;entryX=0.5;entryY=0;entryDx=0;entryDy=0;exitX=0.5;exitY=1;exitDx=0;exitDy=0;" edge="1" parent="1" source="L89Lu0_wdaJq7RYPjsFC-83" target="L89Lu0_wdaJq7RYPjsFC-84">
          <mxGeometry width="50" height="50" relative="1" as="geometry">
            <mxPoint x="1472.5" y="880" as="sourcePoint" />
            <mxPoint x="1472.5" y="900" as="targetPoint" />
          </mxGeometry>
        </mxCell>
        <mxCell id="L89Lu0_wdaJq7RYPjsFC-89" value="" style="endArrow=classic;html=1;rounded=0;exitX=0.5;exitY=1;exitDx=0;exitDy=0;entryX=1;entryY=0;entryDx=0;entryDy=0;" edge="1" parent="1" source="L89Lu0_wdaJq7RYPjsFC-84" target="L89Lu0_wdaJq7RYPjsFC-85">
          <mxGeometry width="50" height="50" relative="1" as="geometry">
            <mxPoint x="1472.5" y="920" as="sourcePoint" />
            <mxPoint x="1452.5" y="970" as="targetPoint" />
          </mxGeometry>
        </mxCell>
        <mxCell id="L89Lu0_wdaJq7RYPjsFC-90" value="" style="endArrow=classic;html=1;rounded=0;exitX=0.5;exitY=1;exitDx=0;exitDy=0;entryX=0;entryY=0;entryDx=0;entryDy=0;" edge="1" parent="1" source="L89Lu0_wdaJq7RYPjsFC-84" target="L89Lu0_wdaJq7RYPjsFC-86">
          <mxGeometry width="50" height="50" relative="1" as="geometry">
            <mxPoint x="1472.5" y="960" as="sourcePoint" />
            <mxPoint x="1462.5" y="980" as="targetPoint" />
          </mxGeometry>
        </mxCell>
        <mxCell id="L89Lu0_wdaJq7RYPjsFC-91" value="" style="endArrow=classic;html=1;rounded=0;exitX=0.5;exitY=1;exitDx=0;exitDy=0;entryX=0.5;entryY=0;entryDx=0;entryDy=0;" edge="1" parent="1" source="L89Lu0_wdaJq7RYPjsFC-86" target="L89Lu0_wdaJq7RYPjsFC-87">
          <mxGeometry width="50" height="50" relative="1" as="geometry">
            <mxPoint x="1472.5" y="960" as="sourcePoint" />
            <mxPoint x="1485.5" y="980" as="targetPoint" />
          </mxGeometry>
        </mxCell>
        <mxCell id="L89Lu0_wdaJq7RYPjsFC-92" value="" style="endArrow=classic;html=1;rounded=0;entryX=0;entryY=0;entryDx=0;entryDy=0;exitX=0.5;exitY=1;exitDx=0;exitDy=0;" edge="1" parent="1" source="L89Lu0_wdaJq7RYPjsFC-68" target="L89Lu0_wdaJq7RYPjsFC-83">
          <mxGeometry width="50" height="50" relative="1" as="geometry">
            <mxPoint x="1405" y="880" as="sourcePoint" />
            <mxPoint x="1370" y="900" as="targetPoint" />
          </mxGeometry>
        </mxCell>
        <mxCell id="L89Lu0_wdaJq7RYPjsFC-94" value="192" style="rounded=1;whiteSpace=wrap;html=1;fillColor=#dae8fc;strokeColor=#6c8ebf;" vertex="1" parent="1">
          <mxGeometry x="1403" y="866" width="24.5" height="14" as="geometry" />
        </mxCell>
        <mxCell id="L89Lu0_wdaJq7RYPjsFC-95" value="2" style="rounded=1;whiteSpace=wrap;html=1;fillColor=#dae8fc;strokeColor=#6c8ebf;" vertex="1" parent="1">
          <mxGeometry x="1235" y="906" width="24.5" height="14" as="geometry" />
        </mxCell>
        <mxCell id="L89Lu0_wdaJq7RYPjsFC-96" value="4" style="rounded=1;whiteSpace=wrap;html=1;fillColor=#dae8fc;strokeColor=#6c8ebf;" vertex="1" parent="1">
          <mxGeometry x="1366" y="1026" width="24.5" height="14" as="geometry" />
        </mxCell>
        <mxCell id="L89Lu0_wdaJq7RYPjsFC-97" value="4" style="rounded=1;whiteSpace=wrap;html=1;fillColor=#dae8fc;strokeColor=#6c8ebf;" vertex="1" parent="1">
          <mxGeometry x="1509" y="1026" width="24.5" height="14" as="geometry" />
        </mxCell>
        <mxCell id="L89Lu0_wdaJq7RYPjsFC-98" value="4" style="rounded=1;whiteSpace=wrap;html=1;fillColor=#dae8fc;strokeColor=#6c8ebf;" vertex="1" parent="1">
          <mxGeometry x="1509" y="986" width="24.5" height="14" as="geometry" />
        </mxCell>
        <mxCell id="L89Lu0_wdaJq7RYPjsFC-99" value="4" style="rounded=1;whiteSpace=wrap;html=1;fillColor=#dae8fc;strokeColor=#6c8ebf;" vertex="1" parent="1">
          <mxGeometry x="1366" y="986" width="24.5" height="14" as="geometry" />
        </mxCell>
        <mxCell id="L89Lu0_wdaJq7RYPjsFC-100" value="2" style="rounded=1;whiteSpace=wrap;html=1;fillColor=#dae8fc;strokeColor=#6c8ebf;" vertex="1" parent="1">
          <mxGeometry x="1437.5" y="986" width="24.5" height="14" as="geometry" />
        </mxCell>
        <mxCell id="L89Lu0_wdaJq7RYPjsFC-101" value="1" style="rounded=1;whiteSpace=wrap;html=1;fillColor=#dae8fc;strokeColor=#6c8ebf;" vertex="1" parent="1">
          <mxGeometry x="1294.5" y="986" width="24.5" height="14" as="geometry" />
        </mxCell>
        <mxCell id="L89Lu0_wdaJq7RYPjsFC-102" value="4" style="rounded=1;whiteSpace=wrap;html=1;fillColor=#dae8fc;strokeColor=#6c8ebf;" vertex="1" parent="1">
          <mxGeometry x="1331" y="945" width="24.5" height="14" as="geometry" />
        </mxCell>
        <mxCell id="L89Lu0_wdaJq7RYPjsFC-103" value="8" style="rounded=1;whiteSpace=wrap;html=1;fillColor=#dae8fc;strokeColor=#6c8ebf;" vertex="1" parent="1">
          <mxGeometry x="1475" y="945" width="24.5" height="14" as="geometry" />
        </mxCell>
        <mxCell id="L89Lu0_wdaJq7RYPjsFC-105" value="4" style="rounded=1;whiteSpace=wrap;html=1;fillColor=#dae8fc;strokeColor=#6c8ebf;" vertex="1" parent="1">
          <mxGeometry x="1345.5" y="906" width="24.5" height="14" as="geometry" />
        </mxCell>
        <mxCell id="L89Lu0_wdaJq7RYPjsFC-106" value="8" style="rounded=1;whiteSpace=wrap;html=1;fillColor=#dae8fc;strokeColor=#6c8ebf;" vertex="1" parent="1">
          <mxGeometry x="1489.75" y="906" width="24.5" height="14" as="geometry" />
        </mxCell>
        <mxCell id="L89Lu0_wdaJq7RYPjsFC-107" value="3" style="rounded=1;whiteSpace=wrap;html=1;fillColor=#dae8fc;strokeColor=#6c8ebf;" vertex="1" parent="1">
          <mxGeometry x="1568" y="906" width="24.5" height="14" as="geometry" />
        </mxCell>
      </root>
    </mxGraphModel>
  </diagram>
</mxfile>
